<svg width="34" height="36" viewBox="0 0 34 36" fill="none" xmlns="http://www.w3.org/2000/svg">
    <path fill-rule="evenodd" clip-rule="evenodd" d="M16 21L16 10L18 10L18 21L16 21Z" fill="#EC1C24"/>
    <path fill-rule="evenodd" clip-rule="evenodd" d="M16 31L16 20L18 20L18 31L16 31Z" fill="#EC1C24"/>
    <path fill-rule="evenodd" clip-rule="evenodd" d="M7 22C5.34315 22 4 23.3431 4 25V31H2V25C2 22.2386 4.23858 20 7 20H27C29.7614 20 32 22.2386 32 25V31H30V25C30 23.3431 28.6569 22 27 22H7Z" fill="#EC1C24"/>
    <path fill-rule="evenodd" clip-rule="evenodd" d="M17 2C15.8954 2 15 2.89543 15 4C15 5.10457 15.8954 6 17 6C18.1046 6 19 5.10457 19 4C19 2.89543 18.1046 2 17 2ZM13 4C13 1.79086 14.7909 0 17 0C19.2091 0 21 1.79086 21 4C21 6.20914 19.2091 8 17 8C14.7909 8 13 6.20914 13 4Z" fill="#EB8F92"/>
    <path d="M6 33C6 34.6569 4.65685 36 3 36C1.34315 36 0 34.6569 0 33C0 31.3431 1.34315 30 3 30C4.65685 30 6 31.3431 6 33Z" fill="#EC1C24"/>
    <path d="M20 33C20 34.6569 18.6569 36 17 36C15.3431 36 14 34.6569 14 33C14 31.3431 15.3431 30 17 30C18.6569 30 20 31.3431 20 33Z" fill="#EC1C24"/>
    <path d="M34 33C34 34.6569 32.6569 36 31 36C29.3431 36 28 34.6569 28 33C28 31.3431 29.3431 30 31 30C32.6569 30 34 31.3431 34 33Z" fill="#EC1C24"/>
</svg>
