<svg width="48" height="16" viewBox="0 0 48 16" fill="none" xmlns="http://www.w3.org/2000/svg">
    <path fill-rule="evenodd" clip-rule="evenodd" d="M31.8025 9.2168L28.5858 6.00003L25 6.00003L25 4.00003L29.4142 4.00003L32.1975 6.78327L37.7639 4.00003L44 4.00003L44 6.00003L38.2361 6.00003L31.8025 9.2168Z" fill="#EB8F92"/>
    <path fill-rule="evenodd" clip-rule="evenodd" d="M17.1975 6.78321L20.4142 9.99997L24 9.99997L24 12L19.5858 12L16.8025 9.21673L11.2361 12L5 12L5 9.99997L10.7639 9.99997L17.1975 6.78321Z" fill="#EB8F92"/>
    <path fill-rule="evenodd" clip-rule="evenodd" d="M31.8025 15.2168L28.5858 12L25 12L25 10L29.4142 10L32.1975 12.7833L37.7639 10L44 10L44 12L38.2361 12L31.8025 15.2168Z" fill="#EC1C24"/>
    <path fill-rule="evenodd" clip-rule="evenodd" d="M17.1975 0.783205L20.4142 3.99997L24 3.99997L24 5.99997L19.5858 5.99997L16.8025 3.21673L11.2361 5.99997L5 5.99997L5 3.99997L10.7639 3.99997L17.1975 0.783205Z" fill="#EC1C24"/>
    <path d="M48 11C48 12.6569 46.6569 14 45 14C43.3431 14 42 12.6569 42 11C42 9.34315 43.3431 8 45 8C46.6569 8 48 9.34315 48 11Z" fill="#EC1C24"/>
    <path fill-rule="evenodd" clip-rule="evenodd" d="M3 4C2.44772 4 2 4.44772 2 5C2 5.55228 2.44772 6 3 6C3.55228 6 4 5.55228 4 5C4 4.44772 3.55228 4 3 4ZM0 5C0 3.34315 1.34315 2 3 2C4.65685 2 6 3.34315 6 5C6 6.65685 4.65685 8 3 8C1.34315 8 0 6.65685 0 5Z" fill="#EC1C24"/>
</svg>
