<svg width="36" height="28" viewBox="0 0 36 28" fill="none" xmlns="http://www.w3.org/2000/svg">
    <path fill-rule="evenodd" clip-rule="evenodd" d="M9.06895 0H26.931L36 9.60242V28H0V9.60242L9.06895 0ZM9.93105 2L2 10.3976V26H34V10.3976L26.069 2H9.93105Z" fill="#EC1C24"/>
    <path fill-rule="evenodd" clip-rule="evenodd" d="M10.589 3H25.411L33 10.5056V25H3V10.5056L10.589 3ZM11.411 5L5 11.3405V23H31V11.3405L24.589 5H11.411Z" fill="#EB8F92"/>
    <path d="M10 13H12V20H10V13Z" fill="#EC1C24"/>
    <path d="M24 13H26V20H24V13Z" fill="#EC1C24"/>
    <path d="M17 7H19V14H17V7Z" fill="#EC1C24"/>
</svg>
