<svg width="28" height="30" viewBox="0 0 28 30" fill="none" xmlns="http://www.w3.org/2000/svg">
    <path fill-rule="evenodd" clip-rule="evenodd" d="M0 0H12V8H16L16 0H28V30H16V22H12L12 30H0V0ZM2 2V28H10L10 20H18V28H26V2H18L18 10H10V2H2ZM10 12H18V18H10V12ZM12 14V16H16V14H12Z" fill="#EC1C24"/>
    <path d="M8 11C8 12.1046 7.10457 13 6 13C4.89543 13 4 12.1046 4 11C4 9.89543 4.89543 9 6 9C7.10457 9 8 9.89543 8 11Z" fill="#EC1C24"/>
    <path d="M24 11C24 12.1046 23.1046 13 22 13C20.8954 13 20 12.1046 20 11C20 9.89543 20.8954 9 22 9C23.1046 9 24 9.89543 24 11Z" fill="#EC1C24"/>
    <path d="M8 19C8 20.1046 7.10457 21 6 21C4.89543 21 4 20.1046 4 19C4 17.8954 4.89543 17 6 17C7.10457 17 8 17.8954 8 19Z" fill="#EC1C24"/>
    <path d="M24 19C24 20.1046 23.1046 21 22 21C20.8954 21 20 20.1046 20 19C20 17.8954 20.8954 17 22 17C23.1046 17 24 17.8954 24 19Z" fill="#EC1C24"/>
</svg>
