<svg width="40" height="40" viewBox="0 0 40 40" fill="none" xmlns="http://www.w3.org/2000/svg">
    <path fill-rule="evenodd" clip-rule="evenodd" d="M4 16V8H6V18H3.85463C3.67606 19.3273 3.67606 20.6727 3.85463 22H6V31.5H4V24H2.15288L1.95201 22.7948C1.6436 20.9444 1.6436 19.0556 1.95201 17.2052L2.15288 16H4Z" fill="#EB8F92"/>
    <path fill-rule="evenodd" clip-rule="evenodd" d="M36 16V8H34V18H36.1454C36.3239 19.3273 36.3239 20.6727 36.1454 22H34V31.5H36V24H37.8471L38.048 22.7948C38.3564 20.9444 38.3564 19.0556 38.048 17.2052L37.8471 16H36Z" fill="#EB8F92"/>
    <path fill-rule="evenodd" clip-rule="evenodd" d="M21 7V1H19V7H21Z" fill="#EB8F92"/>
    <path fill-rule="evenodd" clip-rule="evenodd" d="M21 39V33H19V39H21Z" fill="#EB8F92"/>
    <path fill-rule="evenodd" clip-rule="evenodd" d="M20 2C10.0589 2 2 10.0589 2 20C2 29.9411 10.0589 38 20 38C29.9411 38 38 29.9411 38 20C38 10.0589 29.9411 2 20 2ZM0 20C0 8.95431 8.95431 0 20 0C31.0457 0 40 8.95431 40 20C40 31.0457 31.0457 40 20 40C8.95431 40 0 31.0457 0 20Z" fill="#EC1C24"/>
    <path d="M14 20C14 21.1046 13.1046 22 12 22C10.8954 22 10 21.1046 10 20C10 18.8954 10.8954 18 12 18C13.1046 18 14 18.8954 14 20Z" fill="#EC1C24"/>
    <path d="M22 20C22 21.1046 21.1046 22 20 22C18.8954 22 18 21.1046 18 20C18 18.8954 18.8954 18 20 18C21.1046 18 22 18.8954 22 20Z" fill="#EB8F92"/>
    <path d="M30 20C30 21.1046 29.1046 22 28 22C26.8954 22 26 21.1046 26 20C26 18.8954 26.8954 18 28 18C29.1046 18 30 18.8954 30 20Z" fill="#EC1C24"/>
</svg>
