<svg width="104" height="137" viewBox="0 0 104 137" fill="none" xmlns="http://www.w3.org/2000/svg">
    <path fill-rule="evenodd" clip-rule="evenodd" d="M28.5957 72.5254L54.1752 87.2937L26.0239 136.053L18.5415 119.476L0.444422 121.285L28.5957 72.5254ZM29.3278 75.2574L4.12673 118.907L19.7731 117.343L26.2421 131.675L51.4432 88.0258L29.3278 75.2574Z" fill="#EB8F92"/>
    <path fill-rule="evenodd" clip-rule="evenodd" d="M75.6895 72.5254L50.1099 87.2937L78.2612 136.053L85.7436 119.476L103.841 121.285L75.6895 72.5254ZM74.9574 75.2574L100.158 118.907L84.5121 117.343L78.043 131.675L52.842 88.0258L74.9574 75.2574Z" fill="#EB8F92"/>
    <path d="M96.6305 45.3641C96.6305 69.8274 76.7991 89.6588 52.3358 89.6588C27.8724 89.6588 8.04102 69.8274 8.04102 45.3641C8.04102 20.9008 27.8724 1.06934 52.3358 1.06934C76.7991 1.06934 96.6305 20.9008 96.6305 45.3641Z" fill="white"/>
    <path fill-rule="evenodd" clip-rule="evenodd" d="M9.04102 45.3641C9.04102 21.4531 28.4247 2.06934 52.3358 2.06934C76.2468 2.06934 95.6305 21.4531 95.6305 45.3641C95.6305 69.2751 76.2468 88.6588 52.3358 88.6588C28.4247 88.6588 9.04102 69.2751 9.04102 45.3641ZM52.3358 0.0693359C27.3202 0.0693359 7.04102 20.3485 7.04102 45.3641C7.04102 70.3797 27.3202 90.6588 52.3358 90.6588C77.3514 90.6588 97.6305 70.3797 97.6305 45.3641C97.6305 20.3485 77.3514 0.0693359 52.3358 0.0693359ZM25.1484 45.3643C25.1484 30.349 37.3207 18.1768 52.336 18.1768C67.3513 18.1768 79.5236 30.349 79.5236 45.3643C79.5236 60.3796 67.3513 72.5519 52.336 72.5519C37.3207 72.5519 25.1484 60.3796 25.1484 45.3643ZM52.336 16.1768C36.2162 16.1768 23.1484 29.2445 23.1484 45.3643C23.1484 61.4842 36.2162 74.5519 52.336 74.5519C68.4558 74.5519 81.5236 61.4842 81.5236 45.3643C81.5236 29.2445 68.4558 16.1768 52.336 16.1768Z" fill="#EC1C24"/>
</svg>
