<svg width="16" height="16" viewBox="0 0 16 16" fill="none" xmlns="http://www.w3.org/2000/svg">
    <g clip-path="url(#clip1)">
        <path fill-rule="evenodd" clip-rule="evenodd" d="M15.6333 3.96525C15.744 3.60125 15.6333 3.33325 15.1033 3.33325H13.3533C12.908 3.33325 12.7027 3.56459 12.5913 3.81992C12.5913 3.81992 11.7013 5.95058 10.4407 7.33458C10.0327 7.73592 9.84733 7.86325 9.62467 7.86325C9.51333 7.86325 9.346 7.73592 9.346 7.37125V3.96525C9.346 3.52792 9.22333 3.33325 8.85267 3.33325H6.10067C5.82267 3.33325 5.65533 3.53592 5.65533 3.72859C5.65533 4.14259 6.286 4.23859 6.35067 5.40392V7.93592C6.35067 8.49125 6.24867 8.59192 6.026 8.59192C5.43267 8.59192 3.98933 6.45125 3.13267 4.00192C2.96667 3.52525 2.79867 3.33325 2.35133 3.33325H0.6C0.1 3.33325 0 3.56459 0 3.81992C0 4.27459 0.593333 6.53325 2.76333 9.52058C4.21 11.5606 6.24667 12.6666 8.102 12.6666C9.21467 12.6666 9.352 12.4213 9.352 11.9979V10.4559C9.352 9.96458 9.45733 9.86658 9.81 9.86658C10.07 9.86658 10.5147 9.99458 11.5533 10.9779C12.74 12.1439 12.9353 12.6666 13.6033 12.6666H15.3533C15.8533 12.6666 16.104 12.4213 15.96 11.9359C15.8013 11.4532 15.2347 10.7526 14.4833 9.92125C14.0753 9.44792 13.4633 8.93792 13.2773 8.68258C13.018 8.35525 13.092 8.20925 13.2773 7.91792C13.2773 7.91792 15.4107 4.96725 15.6327 3.96525H15.6333Z" fill="currentColor"/>
    </g>
    <defs>
        <clipPath id="clip1">
            <rect width="16" height="16" fill="white"/>
        </clipPath>
    </defs>
</svg>
