<svg width="120" height="101" viewBox="0 0 120 101" fill="none" xmlns="http://www.w3.org/2000/svg"><path stroke="#EC1C24" stroke-width="2" d="M27 38H51V62H27z"/><path stroke="#EC1C24" stroke-width="2" d="M95 76H119V100H95z"/><path stroke="#fff" stroke-width="2" d="M48 76H72V100H48z"/><path stroke="#fff" stroke-width="2" d="M1 76H25V100H1z"/><path stroke="#fff" stroke-width="2" d="M69 38H93V62H69z"/><path fill="#EC1C24" d="M77 46H85V54H77z"/><path fill="#EC1C24" d="M56 84H64V92H56z"/><path fill="#EC1C24" d="M9 84H17V92H9z"/><path fill="#EC1C24" d="M103 84H111V92H103z"/><path fill="#EC1C24" d="M35 46H43V54H35z"/><path d="M71 13H80V35" stroke="#fff" stroke-width="2"/><path d="M49 13H40V35" stroke="#fff" stroke-width="2"/><path fill="#fff" d="M47 0H73V26H47z"/><path d="M96 51H107V73" stroke="#fff" stroke-width="2"/><path d="M92 88H75" stroke="#fff" stroke-width="2"/><path d="M45 88H28" stroke="#fff" stroke-width="2"/><path d="M66 51H55" stroke="#fff" stroke-width="2"/><path d="M24 51H13V73" stroke="#fff" stroke-width="2"/></svg>