<svg width="24" height="24" viewBox="0 0 24 24" fill="none" xmlns="http://www.w3.org/2000/svg">
    <path fill-rule="evenodd" clip-rule="evenodd" d="M22 4H18.8293C18.4175 2.83481 17.3062 2 16 2C14.6938 2 13.5825 2.83481 13.1707 4H2V6H13.1707C13.5825 7.16519 14.6938 8 16 8C17.3062 8 18.4175 7.16519 18.8293 6H22V4ZM16 6C16.5523 6 17 5.55228 17 5C17 4.44772 16.5523 4 16 4C15.4477 4 15 4.44772 15 5C15 5.55228 15.4477 6 16 6Z" fill="currentColor"/>
    <path fill-rule="evenodd" clip-rule="evenodd" d="M22 11L10.8293 11C10.4175 9.83481 9.30622 9 8 9C6.69378 9 5.58254 9.83481 5.17071 11L2 11V13L5.17071 13C5.58254 14.1652 6.69378 15 8 15C9.30622 15 10.4175 14.1652 10.8293 13L22 13V11ZM8 13C8.55228 13 9 12.5523 9 12C9 11.4477 8.55228 11 8 11C7.44772 11 7 11.4477 7 12C7 12.5523 7.44772 13 8 13Z" fill="currentColor"/>
    <path fill-rule="evenodd" clip-rule="evenodd" d="M22 18L18.8293 18C18.4175 16.8348 17.3062 16 16 16C14.6938 16 13.5825 16.8348 13.1707 18L2 18V20L13.1707 20C13.5825 21.1652 14.6938 22 16 22C17.3062 22 18.4175 21.1652 18.8293 20H22V18ZM16 20C16.5523 20 17 19.5523 17 19C17 18.4477 16.5523 18 16 18C15.4477 18 15 18.4477 15 19C15 19.5523 15.4477 20 16 20Z" fill="currentColor"/>
</svg>
