<svg width="136" height="24" viewBox="0 0 136 24" fill="none" xmlns="http://www.w3.org/2000/svg">
    <path fill-rule="evenodd" clip-rule="evenodd" d="M72.9208 2.62901C70.6496 1.09171 66.1965 0.289637 61.2757 0.311917L47.3373 0.334196V23.416H60.5632H60.63H60.6968C61.4761 23.416 62.5671 23.3715 63.9921 23.3046C65.4172 23.2378 67.7551 23.0818 69.336 22.6585C74.8356 21.2103 78.3982 16.8435 78.3982 11.6746C78.3759 8.42175 76.6837 4.74559 72.9208 2.62901ZM59.8284 20.5419H55.5756V3.16372H60.2515C66.8422 3.16372 70.2266 7.08496 70.2266 11.5855C70.2266 18.559 64.7937 20.3414 59.8284 20.5419ZM126.782 20.8093C120.347 20.8761 115.627 16.6875 115.627 12.0979C115.627 7.10724 120.458 3.03005 126.381 3.03005C129.142 3.03005 131.703 3.38652 134.286 4.90155C134.352 4.94611 134.419 4.99066 134.508 5.03522H134.931L136 1.69326C133.15 0.623833 129.788 0 126.203 0C115.181 0 107.388 5.19118 107.388 11.5409C107.388 17.8906 112.22 23.6834 126.559 23.6834C130.077 23.6834 132.816 23.0818 135.399 22.1906L135.978 19.2497H135.666C133.217 20.4083 130.077 20.8316 126.782 20.8093ZM108.101 0.601553V0.334196H102.846L89.7092 11.1844V0.334196H82.0052V23.416H89.7983V13.7243L99.7289 23.416H108.524V23.1932L95.966 10.5606L108.101 0.601553ZM39.1657 12.2093C37.3399 10.0259 33.6883 8.53314 29.48 8.53314C25.3163 8.53314 21.6647 10.0036 19.8389 12.1647C20.1284 12.4767 20.4623 12.7886 20.8409 13.0559C22.8448 11.4295 25.9843 10.3824 29.48 10.3824C32.998 10.3824 36.1375 11.4295 38.1415 13.0559C38.4977 12.8109 38.854 12.5212 39.1657 12.2093ZM18.926 10.6497C19.0596 10.9839 19.2155 11.2958 19.4158 11.6078C21.0635 9.15698 24.9601 7.41916 29.48 7.41916C34.0445 7.41916 37.9633 9.17926 39.5887 11.6746C39.7891 11.4072 39.9673 11.1399 40.1231 10.828C39.0098 7.82019 34.6457 5.54766 29.48 5.54766C24.4257 5.56994 20.1506 7.73107 18.926 10.6497ZM21.7092 13.6352C22.3104 13.9694 23.0007 14.259 23.7577 14.4818C25.4276 13.8357 27.387 13.457 29.48 13.457C31.573 13.457 33.5102 13.8357 35.1578 14.4596C35.9149 14.2368 36.6051 13.9471 37.2286 13.6129C35.2469 12.3653 32.5082 11.5855 29.48 11.5855C26.4519 11.5855 23.6909 12.3653 21.7092 13.6352ZM29.48 20.7424C23.446 20.7424 18.3694 18.4031 17.2115 15.2839V17.8238C17.7682 19.272 19.1709 20.5865 21.1526 21.5445L7.72626 21.5V2.18342H30.5043V4.29999H33.3766V2.76269C33.3766 1.4259 32.3078 0.356476 31.0164 0.356476H2.38245C1.06876 0.356476 0 1.44818 0 2.76269V20.8984C0 22.2129 1.06876 23.3046 2.38245 23.3046H30.9941C34.7348 23.3046 40.1899 20.787 41.4813 18.3585V15.8186C39.9673 18.6704 35.1578 20.7424 29.48 20.7424ZM29.48 16.8435C23.446 16.8435 18.3694 14.5041 17.2115 11.385V13.8357C18.3694 16.9326 23.446 19.2943 29.48 19.2943C35.1578 19.2943 39.9673 17.2222 41.5036 14.3927V11.9419C39.9673 14.7715 35.1578 16.8435 29.48 16.8435Z"
          fill="currentColor"/>
</svg>
