<svg width="16" height="16" viewBox="0 0 16 16" fill="none" xmlns="http://www.w3.org/2000/svg">
    <path d="M12.594 4.67457C13.1327 4.3439 13.4893 3.89257 13.664 3.31857C13.172 3.58464 12.6441 3.77798 12.0967 3.89257C11.628 3.38857 11.0347 3.13257 10.3233 3.13257C9.628 3.13257 9.04067 3.37657 8.56133 3.85124C8.32985 4.07664 8.14683 4.34693 8.02348 4.64556C7.90014 4.94418 7.83906 5.26484 7.844 5.5879C7.844 5.7939 7.87 5.9779 7.922 6.1339C5.87133 6.0639 4.174 5.21324 2.83667 3.5759C2.61 3.97657 2.49667 4.38457 2.49667 4.80657C2.49667 5.6739 2.86267 6.36124 3.59333 6.8659C3.17667 6.83057 2.80933 6.72524 2.49667 6.55257C2.49667 7.1719 2.67867 7.68924 3.04333 8.14457C3.39757 8.58826 3.89679 8.89298 4.45333 9.00524C4.24533 9.05857 4.026 9.0839 3.80067 9.0839C3.59267 9.0839 3.44533 9.06657 3.358 9.02857C3.51133 9.53324 3.80067 9.94257 4.21867 10.2559C4.63189 10.5697 5.13455 10.7432 5.65333 10.7512C4.76533 11.4479 3.75 11.7926 2.60133 11.7926C2.32 11.7926 2.12067 11.7886 2 11.7672C3.13133 12.5019 4.39067 12.8666 5.784 12.8666C7.21 12.8666 8.47 12.5052 9.56667 11.7826C10.6633 11.0639 11.4727 10.1772 11.9927 9.13323C12.5069 8.12304 12.7747 7.00545 12.774 5.8719V5.5599C13.2533 5.20652 13.6682 4.77331 14.0007 4.27924C13.5517 4.47381 13.0786 4.60679 12.594 4.67457Z" fill="currentColor"/>
</svg>
