<svg width="16" height="16" viewBox="0 0 16 16" fill="none" xmlns="http://www.w3.org/2000/svg">
    <path d="M8.00007 5.91712C6.8532 5.91712 5.91726 6.85305 5.91726 7.99993C5.91726 9.1468 6.8532 10.0827 8.00007 10.0827C9.14695 10.0827 10.0829 9.1468 10.0829 7.99993C10.0829 6.85305 9.14695 5.91712 8.00007 5.91712ZM14.2469 7.99993C14.2469 7.13743 14.2548 6.28274 14.2063 5.4218C14.1579 4.4218 13.9298 3.5343 13.1985 2.80305C12.4657 2.07024 11.5798 1.84368 10.5798 1.79524C9.71726 1.7468 8.86257 1.75462 8.00164 1.75462C7.13914 1.75462 6.28445 1.7468 5.42351 1.79524C4.42351 1.84368 3.53601 2.0718 2.80476 2.80305C2.07195 3.53587 1.84539 4.4218 1.79695 5.4218C1.74851 6.2843 1.75632 7.13899 1.75632 7.99993C1.75632 8.86087 1.74851 9.71712 1.79695 10.5781C1.84539 11.5781 2.07351 12.4656 2.80476 13.1968C3.53757 13.9296 4.42351 14.1562 5.42351 14.2046C6.28601 14.2531 7.1407 14.2452 8.00164 14.2452C8.86414 14.2452 9.71882 14.2531 10.5798 14.2046C11.5798 14.1562 12.4673 13.9281 13.1985 13.1968C13.9313 12.464 14.1579 11.5781 14.2063 10.5781C14.2563 9.71712 14.2469 8.86243 14.2469 7.99993ZM8.00007 11.2046C6.22664 11.2046 4.79539 9.77337 4.79539 7.99993C4.79539 6.22649 6.22664 4.79524 8.00007 4.79524C9.77351 4.79524 11.2048 6.22649 11.2048 7.99993C11.2048 9.77337 9.77351 11.2046 8.00007 11.2046ZM11.336 5.41243C10.9219 5.41243 10.5876 5.07805 10.5876 4.66399C10.5876 4.24993 10.9219 3.91555 11.336 3.91555C11.7501 3.91555 12.0844 4.24993 12.0844 4.66399C12.0846 4.76231 12.0653 4.85969 12.0277 4.95055C11.9902 5.04141 11.935 5.12397 11.8655 5.19349C11.796 5.26301 11.7134 5.31814 11.6226 5.35571C11.5317 5.39328 11.4343 5.41255 11.336 5.41243Z" fill="currentColor"/>
</svg>
