<svg width="120" height="101" viewBox="0 0 120 101" fill="none" xmlns="http://www.w3.org/2000/svg">
<rect x="27" y="38" width="24" height="24" stroke="#EC1C24" stroke-width="2"/>
<rect x="95" y="76" width="24" height="24" stroke="#EC1C24" stroke-width="2"/>
<rect x="48" y="76" width="24" height="24" stroke="white" stroke-width="2"/>
<rect x="1" y="76" width="24" height="24" stroke="white" stroke-width="2"/>
<rect x="69" y="38" width="24" height="24" stroke="white" stroke-width="2"/>
<rect x="77" y="46" width="8" height="8" fill="#EC1C24"/>
<rect x="56" y="84" width="8" height="8" fill="#EC1C24"/>
<rect x="9" y="84" width="8" height="8" fill="#EC1C24"/>
<rect x="103" y="84" width="8" height="8" fill="#EC1C24"/>
<rect x="35" y="46" width="8" height="8" fill="#EC1C24"/>
<path d="M71 13H80V35" stroke="white" stroke-width="2"/>
<path d="M49 13H40V35" stroke="white" stroke-width="2"/>
<rect x="47" width="26" height="26" fill="white"/>
<path d="M96 51H107V73" stroke="white" stroke-width="2"/>
<path d="M92 88H75" stroke="white" stroke-width="2"/>
<path d="M45 88H28" stroke="white" stroke-width="2"/>
<path d="M66 51H55" stroke="white" stroke-width="2"/>
<path d="M24 51H13V73" stroke="white" stroke-width="2"/>
</svg>
