<svg width="121" height="97" viewBox="0 0 121 97" fill="none" xmlns="http://www.w3.org/2000/svg">
<mask id="path-1-inside-1" fill="white">
<path fill-rule="evenodd" clip-rule="evenodd" d="M32.6 0H46.4L50.7006 10.2841C50.9851 10.4001 51.2675 10.5203 51.5477 10.6445L62.2527 6.25269L72.0108 16.0108L67.5465 26.8924C67.7697 27.4179 67.9787 27.9508 68.1732 28.4906L78 32.6V46.4L67.7159 50.7006C67.5998 50.9851 67.4797 51.2675 67.3555 51.5477L71.7473 62.2527L61.9892 72.0108L51.1076 67.5465C50.9724 67.6039 50.8368 67.6604 50.7006 67.7159L46.4 78H32.6L28.4906 68.1732C27.9508 67.9787 27.4179 67.7696 26.8924 67.5465L16.0108 72.0108L6.25269 62.2527L10.6445 51.5477C10.5203 51.2675 10.4002 50.9851 10.2841 50.7006L0 46.4V32.6L9.82679 28.4906C10.0213 27.9508 10.2304 27.4179 10.4535 26.8924L5.98923 16.0108L15.7473 6.25269L26.4523 10.6445C27.1197 10.3487 27.7994 10.0758 28.4906 9.82679L32.6 0Z"/>
</mask>
<path d="M46.4 0L48.2452 -0.771612L47.7315 -2H46.4V0ZM32.6 0V-2H31.2685L30.7548 -0.771612L32.6 0ZM50.7006 10.2841L48.8555 11.0557L49.176 11.8222L49.9453 12.136L50.7006 10.2841ZM51.5477 10.6445L50.7374 12.473L51.5175 12.8187L52.3068 12.4948L51.5477 10.6445ZM62.2527 6.25269L63.6669 4.83848L62.7254 3.89699L61.4936 4.40235L62.2527 6.25269ZM72.0108 16.0108L73.8611 16.7699L74.3665 15.538L73.425 14.5966L72.0108 16.0108ZM67.5465 26.8924L65.6962 26.1333L65.3793 26.9057L65.7056 27.6742L67.5465 26.8924ZM68.1732 28.4906L66.2916 29.1685L66.5899 29.9963L67.4016 30.3358L68.1732 28.4906ZM78 32.6H80V31.2685L78.7716 30.7548L78 32.6ZM78 46.4L78.7716 48.2452L80 47.7315V46.4H78ZM67.7159 50.7006L66.9443 48.8555L66.1778 49.176L65.864 49.9453L67.7159 50.7006ZM67.3555 51.5477L65.527 50.7374L65.1813 51.5175L65.5052 52.3068L67.3555 51.5477ZM71.7473 62.2527L73.1615 63.6669L74.103 62.7254L73.5976 61.4936L71.7473 62.2527ZM61.9892 72.0108L61.2301 73.8611L62.462 74.3665L63.4035 73.425L61.9892 72.0108ZM51.1076 67.5465L51.8667 65.6962L51.0943 65.3793L50.3258 65.7056L51.1076 67.5465ZM50.7006 67.7159L49.9453 65.864L49.176 66.1778L48.8555 66.9443L50.7006 67.7159ZM46.4 78V80H47.7315L48.2452 78.7716L46.4 78ZM32.6 78L30.7548 78.7716L31.2685 80H32.6V78ZM28.4906 68.1732L30.3358 67.4016L29.9963 66.5899L29.1686 66.2916L28.4906 68.1732ZM26.8924 67.5465L27.6742 65.7056L26.9057 65.3793L26.1333 65.6962L26.8924 67.5465ZM16.0108 72.0108L14.5966 73.425L15.538 74.3665L16.7699 73.8611L16.0108 72.0108ZM6.25269 62.2527L4.40235 61.4936L3.89699 62.7254L4.83848 63.6669L6.25269 62.2527ZM10.6445 51.5477L12.4948 52.3068L12.8187 51.5175L12.473 50.7374L10.6445 51.5477ZM10.2841 50.7006L12.136 49.9453L11.8222 49.176L11.0557 48.8555L10.2841 50.7006ZM0 46.4H-2V47.7315L-0.771612 48.2452L0 46.4ZM0 32.6L-0.771612 30.7548L-2 31.2685V32.6H0ZM9.82679 28.4906L10.5984 30.3358L11.4101 29.9963L11.7084 29.1686L9.82679 28.4906ZM10.4535 26.8924L12.2944 27.6742L12.6207 26.9057L12.3038 26.1333L10.4535 26.8924ZM5.98923 16.0108L4.57502 14.5965L3.63353 15.538L4.1389 16.7699L5.98923 16.0108ZM15.7473 6.25269L16.5064 4.40235L15.2746 3.89699L14.3331 4.83848L15.7473 6.25269ZM26.4523 10.6445L25.6932 12.4948L26.4825 12.8187L27.2626 12.473L26.4523 10.6445ZM28.4906 9.82679L29.1686 11.7084L29.9963 11.4101L30.3358 10.5984L28.4906 9.82679ZM46.4 -2H32.6V2H46.4V-2ZM52.5458 9.5125L48.2452 -0.771612L44.5548 0.771612L48.8555 11.0557L52.5458 9.5125ZM52.3581 8.81599C52.0597 8.68375 51.7589 8.55581 51.456 8.43223L49.9453 12.136C50.2113 12.2445 50.4754 12.3568 50.7374 12.473L52.3581 8.81599ZM61.4936 4.40235L50.7886 8.79414L52.3068 12.4948L63.0118 8.10303L61.4936 4.40235ZM73.425 14.5966L63.6669 4.83848L60.8385 7.6669L70.5965 17.425L73.425 14.5966ZM69.3968 27.6515L73.8611 16.7699L70.1604 15.2517L65.6962 26.1333L69.3968 27.6515ZM70.0548 27.8127C69.8477 27.2377 69.625 26.6702 69.3874 26.1106L65.7056 27.6742C65.9143 28.1655 66.1098 28.6638 66.2916 29.1685L70.0548 27.8127ZM78.7716 30.7548L68.9448 26.6455L67.4016 30.3358L77.2284 34.4452L78.7716 30.7548ZM80 46.4V32.6H76V46.4H80ZM68.4875 52.5458L78.7716 48.2452L77.2284 44.5548L66.9443 48.8555L68.4875 52.5458ZM69.184 52.358C69.3162 52.0597 69.4442 51.759 69.5678 51.456L65.864 49.9453C65.7555 50.2113 65.6432 50.4754 65.527 50.7374L69.184 52.358ZM73.5976 61.4936L69.2059 50.7886L65.5052 52.3068L69.897 63.0118L73.5976 61.4936ZM63.4035 73.425L73.1615 63.6669L70.3331 60.8385L60.575 70.5965L63.4035 73.425ZM50.3485 69.3968L61.2301 73.8611L62.7483 70.1604L51.8667 65.6962L50.3485 69.3968ZM51.456 69.5678C51.6009 69.5086 51.7454 69.4485 51.8894 69.3874L50.3258 65.7056C50.1994 65.7593 50.0726 65.8121 49.9453 65.864L51.456 69.5678ZM48.2452 78.7716L52.5458 68.4875L48.8555 66.9443L44.5548 77.2284L48.2452 78.7716ZM32.6 80H46.4V76H32.6V80ZM26.6455 68.9448L30.7548 78.7716L34.4452 77.2284L30.3358 67.4016L26.6455 68.9448ZM26.1107 69.3874C26.6702 69.625 27.2377 69.8477 27.8127 70.0548L29.1686 66.2916C28.6638 66.1098 28.1655 65.9143 27.6742 65.7056L26.1107 69.3874ZM16.7699 73.8611L27.6515 69.3968L26.1333 65.6962L15.2517 70.1604L16.7699 73.8611ZM4.83848 63.6669L14.5966 73.425L17.425 70.5965L7.6669 60.8385L4.83848 63.6669ZM8.79414 50.7886L4.40235 61.4936L8.10303 63.0118L12.4948 52.3068L8.79414 50.7886ZM8.43223 51.456C8.55581 51.7589 8.68375 52.0597 8.81599 52.3581L12.473 50.7374C12.3568 50.4754 12.2445 50.2113 12.136 49.9453L8.43223 51.456ZM-0.771612 48.2452L9.5125 52.5458L11.0557 48.8555L0.771612 44.5548L-0.771612 48.2452ZM-2 32.6V46.4H2V32.6H-2ZM9.05517 26.6455L-0.771612 30.7548L0.771612 34.4452L10.5984 30.3358L9.05517 26.6455ZM8.61262 26.1107C8.37499 26.6702 8.15234 27.2377 7.94519 27.8127L11.7084 29.1686C11.8902 28.6638 12.0857 28.1655 12.2944 27.6742L8.61262 26.1107ZM4.1389 16.7699L8.60317 27.6515L12.3038 26.1333L7.83957 15.2517L4.1389 16.7699ZM14.3331 4.83848L4.57502 14.5965L7.40345 17.425L17.1615 7.6669L14.3331 4.83848ZM27.2114 8.79414L16.5064 4.40235L14.9882 8.10303L25.6932 12.4948L27.2114 8.79414ZM27.8127 7.94519C27.0766 8.21041 26.3526 8.50103 25.642 8.81599L27.2626 12.473C27.8867 12.1964 28.5223 11.9412 29.1686 11.7084L27.8127 7.94519ZM30.7548 -0.771612L26.6455 9.05517L30.3358 10.5984L34.4452 0.771612L30.7548 -0.771612Z" fill="white" mask="url(#path-1-inside-1)"/>
<circle cx="39" cy="39" r="22" stroke="white" stroke-width="2"/>
<circle cx="39" cy="39" r="7" fill="#EC1C24"/>
<path fill-rule="evenodd" clip-rule="evenodd" d="M93 50H102L103.823 54.8609C104.872 55.1797 105.885 55.5824 106.853 56.0613L111.121 54.1213L117.485 60.4853L115.635 64.5567C116.133 65.4849 116.56 66.4569 116.908 67.4656L121 69V78L117.262 79.4017C116.821 80.9778 116.192 82.4751 115.4 83.8681L116.879 87.1213L110.515 93.4853L106.977 91.8771C105.843 92.4477 104.647 92.9136 103.402 93.262L102 97H93L91.4656 92.9082C90.1399 92.4501 88.8774 91.8566 87.6947 91.1441L83.8787 92.8787L77.5147 86.5147L79.6167 81.8904C79.3283 81.2194 79.0755 80.5294 78.8609 79.8228L74 78V69L79.2472 67.0323C79.5489 66.2207 79.9017 65.4339 80.3019 64.6759L78.1213 59.8787L84.4853 53.5147L89.605 55.8419C90.0714 55.6259 90.5474 55.4274 91.0323 55.2472L93 50Z" fill="white"/>
<circle cx="97.5" cy="73.5" r="7.5" fill="#EC1C24"/>
</svg>
